<?xml version="1.0" encoding="UTF-8"?>
<svg version="1.1" xmlns="http://www.w3.org/2000/svg" width="1001" height="251">
<path d="M0,0 L68,0 L68,52 L67,52 L67,53 L66,53 L66,54 L65,54 L65,55 L64,55 L64,56 L63,56 L63,57 L62,57 L62,58 L61,58 L61,59 L60,59 L60,60 L59,60 L59,61 L60,61 L60,62 L61,62 L61,63 L62,63 L62,64 L63,64 L63,65 L64,65 L64,66 L65,66 L65,67 L66,67 L66,68 L67,68 L67,69 L68,69 L68,121 L0,121 Z M25,25 L25,48 L43,48 L43,25 Z M25,73 L25,96 L43,96 L43,73 Z " fill="#C94444" transform="translate(7,65)"/>
<path d="M0,0 L68,0 L68,39 L43,39 L43,25 L25,25 L25,48 L68,48 L68,121 L0,121 L0,82 L1,82 L1,81 L24,81 L24,82 L25,82 L25,96 L43,96 L43,73 L0,73 Z " fill="#E4E4E4" transform="translate(354,65)"/>
<path d="M0,0 L68,0 L68,121 L43,121 L43,78 L25,78 L25,121 L0,121 Z M25,23 L25,53 L43,53 L43,23 Z " fill="#E5E5E5" transform="translate(505,65)"/>
<path d="M0,0 L67,0 L67,121 L0,121 Z M25,25 L25,96 L42,96 L42,25 Z " fill="#E5E5E5" transform="translate(689,65)"/>
<path d="M0,0 L68,0 L68,66 L67,66 L67,67 L66,67 L66,68 L65,68 L65,69 L64,69 L64,70 L63,70 L63,71 L62,71 L62,72 L61,72 L61,73 L60,73 L60,74 L59,74 L59,75 L58,75 L58,76 L57,76 L57,77 L56,77 L56,78 L55,78 L55,79 L54,79 L54,80 L53,80 L53,82 L54,82 L54,83 L55,83 L55,84 L56,84 L56,85 L57,85 L57,86 L58,86 L58,87 L59,87 L59,88 L60,88 L60,89 L61,89 L61,90 L62,90 L62,91 L63,91 L63,92 L64,92 L64,93 L65,93 L65,94 L66,94 L66,95 L68,95 L68,121 L43,121 L43,106 L42,106 L42,105 L41,105 L41,104 L40,104 L40,103 L39,103 L39,102 L38,102 L38,101 L37,101 L37,100 L36,100 L36,99 L35,99 L35,98 L34,98 L34,97 L33,97 L33,96 L32,96 L32,95 L31,95 L31,94 L25,94 L25,121 L0,121 Z M25,25 L25,68 L31,68 L31,67 L32,67 L32,66 L33,66 L33,65 L34,65 L34,64 L35,64 L35,63 L36,63 L36,62 L37,62 L37,61 L38,61 L38,60 L39,60 L39,59 L40,59 L40,58 L41,58 L41,57 L42,57 L42,56 L43,56 L43,25 Z " fill="#C84444" transform="translate(158,65)"/>
<path d="M0,0 L67,0 L67,121 L43,121 L43,120 L42,120 L42,119 L43,119 L43,78 L25,78 L25,121 L0,121 Z M25,23 L25,53 L43,53 L43,23 Z " fill="#C84444" transform="translate(83,65)"/>
<path d="M0,0 L25,0 L25,1 L26,1 L26,2 L27,2 L27,3 L28,3 L28,4 L29,4 L29,5 L30,5 L30,6 L31,6 L31,7 L32,7 L32,8 L33,8 L33,9 L34,9 L34,10 L35,10 L35,11 L36,11 L36,12 L37,12 L37,13 L38,13 L38,14 L39,14 L39,15 L40,15 L40,16 L41,16 L41,17 L42,17 L42,18 L43,18 L43,0 L68,0 L68,121 L43,121 L43,53 L42,53 L42,52 L41,52 L41,51 L40,51 L40,50 L39,50 L39,49 L38,49 L38,48 L37,48 L37,47 L36,47 L36,46 L35,46 L35,45 L34,45 L34,44 L33,44 L33,43 L32,43 L32,42 L31,42 L31,41 L30,41 L30,40 L29,40 L29,39 L28,39 L28,38 L27,38 L27,37 L26,37 L26,36 L25,36 L25,121 L0,121 Z " fill="#E4E4E4" transform="translate(764,65)"/>
<path d="M0,0 L25,0 L25,48 L28,48 L28,47 L29,47 L29,46 L30,46 L30,45 L31,45 L31,44 L32,44 L32,43 L33,43 L33,42 L34,42 L34,41 L35,41 L35,40 L36,40 L36,39 L37,39 L37,38 L38,38 L38,37 L39,37 L39,36 L40,36 L40,35 L41,35 L41,34 L42,34 L42,0 L67,0 L67,44 L66,44 L66,45 L65,45 L65,46 L64,46 L64,47 L63,47 L63,48 L62,48 L62,49 L61,49 L61,50 L60,50 L60,51 L59,51 L59,52 L58,52 L58,53 L57,53 L57,54 L56,54 L56,55 L55,55 L55,56 L54,56 L54,57 L53,57 L53,58 L52,58 L52,59 L51,59 L51,60 L50,60 L50,61 L51,61 L51,62 L52,62 L52,63 L53,63 L53,64 L54,64 L54,65 L55,65 L55,66 L56,66 L56,67 L57,67 L57,68 L58,68 L58,69 L59,69 L59,70 L60,70 L60,71 L61,71 L61,72 L62,72 L62,73 L63,73 L63,74 L64,74 L64,75 L65,75 L65,76 L66,76 L66,77 L67,77 L67,121 L42,121 L42,87 L41,87 L41,86 L40,86 L40,85 L39,85 L39,84 L38,84 L38,83 L37,83 L37,82 L36,82 L36,81 L35,81 L35,80 L34,80 L34,79 L33,79 L33,78 L32,78 L32,77 L31,77 L31,76 L30,76 L30,75 L29,75 L29,74 L28,74 L28,73 L25,73 L25,121 L0,121 L0,120 L-1,120 L-1,1 L0,1 Z " fill="#C54545" transform="translate(234,65)"/>
<path d="M0,0 L24,0 L24,56 L25,56 L25,57 L26,57 L26,58 L27,58 L27,59 L28,59 L28,60 L42,60 L42,0 L67,0 L67,121 L42,121 L42,85 L18,85 L18,84 L17,84 L17,83 L16,83 L16,82 L15,82 L15,81 L14,81 L14,80 L13,80 L13,79 L12,79 L12,78 L11,78 L11,77 L10,77 L10,76 L9,76 L9,75 L8,75 L8,74 L7,74 L7,73 L6,73 L6,72 L5,72 L5,71 L4,71 L4,70 L3,70 L3,69 L2,69 L2,68 L1,68 L1,67 L0,67 Z " fill="#C74444" transform="translate(927,65)"/>
<path d="M0,0 L68,0 L68,25 L47,25 L47,121 L22,121 L22,25 L0,25 Z " fill="#E3E3E3" transform="translate(580,65)"/>
<path d="M0,0 L68,0 L68,25 L47,25 L47,121 L22,121 L22,25 L0,25 Z " fill="#E3E3E3" transform="translate(429,65)"/>
<path d="M0,0 L34,0 L34,121 L9,121 L9,25 L0,25 Z " fill="#C74444" transform="translate(885,65)"/>
<path d="M0,0 L25,0 L25,121 L0,121 Z " fill="#E3E3E3" transform="translate(656,65)"/>
</svg>
